HIERARCHY
ROOT Hips
{
	OFFSET 0.00 0.00 0.00
	CHANNELS 6 Xposition Yposition Zposition Xrotation Yrotation Zrotation
	JOINT LeftUpLeg
	{
		OFFSET 3.34807 0.00000 0.00000
		CHANNELS 3 Xrotation Yrotation Zrotation
		JOINT LeftLeg
		{
			OFFSET 0.00000 -16.98552 0.00000
			CHANNELS 3 Xrotation Yrotation Zrotation
			JOINT LeftFoot
			{
				OFFSET 0.00000 -16.83686 0.00000
				CHANNELS 3 Xrotation Yrotation Zrotation
				JOINT LeftToeBase
				{
					OFFSET 0.00000 -1.59599 5.95633
					CHANNELS 3 Xrotation Yrotation Zrotation
					End Site
					{
						OFFSET 0.00000 0.00000 2.95275
					}
				}
			}
		}
	}
	JOINT RightUpLeg
	{
		OFFSET -3.34807 0.00000 0.00000
		CHANNELS 3 Xrotation Yrotation Zrotation
		JOINT RightLeg
		{
			OFFSET 0.00000 -16.98552 0.00000
			CHANNELS 3 Xrotation Yrotation Zrotation
			JOINT RightFoot
			{
				OFFSET 0.00000 -16.83686 0.00000
				CHANNELS 3 Xrotation Yrotation Zrotation
				JOINT RightToeBase
				{
					OFFSET 0.00000 -1.59599 5.95633
					CHANNELS 3 Xrotation Yrotation Zrotation
					End Site
					{
						OFFSET 0.00000 0.00000 2.95275
					}
				}
			}
		}
	}
	JOINT Spine
	{
		OFFSET 0.00000 0.03937 0.00000
		CHANNELS 3 Xrotation Yrotation Zrotation
		JOINT Spine1
		{
			OFFSET 0.00000 7.93124 0.00000
			CHANNELS 3 Xrotation Yrotation Zrotation
			JOINT Neck
			{
				OFFSET 0.00000 8.48368 0.00000
				CHANNELS 3 Xrotation Yrotation Zrotation
				JOINT Head
				{
					OFFSET 0.00000 6.65077 0.00000
					CHANNELS 3 Xrotation Yrotation Zrotation
					End Site
					{
						OFFSET 0.00000 4.52755 0.00000
					}
				}
			}
			JOINT LeftShoulder
			{
				OFFSET 0.00000 8.48368 0.00000
				CHANNELS 3 Xrotation Yrotation Zrotation
				JOINT LeftArm
				{
					OFFSET 7.74502 -0.00003 0.00000
					CHANNELS 3 Xrotation Yrotation Zrotation
					JOINT LeftForeArm
					{
						OFFSET 12.49824 -0.00005 0.00000
						CHANNELS 3 Xrotation Yrotation Zrotation
						JOINT LeftHand
						{
							OFFSET 9.88337 -0.00004 0.00000
							CHANNELS 3 Xrotation Yrotation Zrotation
							JOINT LeftHandThumb
							{
								OFFSET 0.00000 0.00000 0.00000
								CHANNELS 3 Xrotation Yrotation Zrotation
								End Site
								{
									OFFSET 0.00000 0.00000 3.93700
								}
							}
							JOINT L_Wrist_End
							{
								OFFSET 3.93700 -0.00001 0.00000
								CHANNELS 3 Xrotation Yrotation Zrotation
							}
						}
					}
				}
			}
			JOINT RightShoulder
			{
				OFFSET 0.00000 8.48368 0.00000
				CHANNELS 3 Xrotation Yrotation Zrotation
				JOINT RightArm
				{
					OFFSET -7.74502 -0.00003 0.00000
					CHANNELS 3 Xrotation Yrotation Zrotation
					JOINT RightForeArm
					{
						OFFSET -12.49824 -0.00005 0.00000
						CHANNELS 3 Xrotation Yrotation Zrotation
						JOINT RightHand
						{
							OFFSET -9.88337 -0.00004 0.00000
							CHANNELS 3 Xrotation Yrotation Zrotation
							JOINT RightHandThumb
							{
								OFFSET 0.00000 0.00000 0.00000
								CHANNELS 3 Xrotation Yrotation Zrotation
								End Site
								{
									OFFSET 0.00000 0.00000 3.93700
								}
							}
							JOINT R_Wrist_End
							{
								OFFSET -5.39369 -0.00002 0.00000
								CHANNELS 3 Xrotation Yrotation Zrotation
							}
						}
					}
				}
			}
		}
	}
}
MOTION
Frames: 19
Frame Time: 0.033332
 33.6906 36.4665 -5.4587 -148.2447 -87.0469 -156.6120 -1.0601 11.0490 7.2442 14.2724 -0.0000 0.0000 -8.9016 1.6530 -10.3936 2.7408 -0.0000 0.0000 -31.4460 -4.2905 5.2486 93.8702 -0.0000 0.0000 0.4919 -7.9914 24.0737 3.4751 -0.0000 -0.0000 -2.6424 -8.1564 -1.9880 18.9706 -8.5681 5.8348 -13.7926 11.5486 4.2934 -8.7739 -5.8529 0.8428 -17.1393 7.8675 29.8231 -57.8212 -8.1822 -83.6966 -0.0003 -51.3728 -0.0001 -35.6796 -48.6258 37.6187 -0.0000 0.0000 -0.0000 -0.0000 0.0000 -0.0000 23.1297 -15.1129 -11.8244 -12.1687 34.2889 85.2122 0.0000 -0.0013 0.0000 102.4811 -72.1510 -98.3840 -0.0000 0.0000 -0.0000 -0.0000 0.0000 -0.0000
 32.1592 37.1850 -5.4908 -151.4454 -87.8303 -159.7478 2.2441 15.6824 7.2612 9.6852 -0.0000 0.0000 -1.7194 -2.0373 -12.1799 -2.3802 0.0000 0.0000 -35.0923 -4.8938 5.9402 89.1856 -0.0000 0.0000 0.4128 -8.3485 23.7322 3.0101 -0.0000 0.0000 -2.9693 -9.2251 -2.1613 18.9337 -9.5747 6.2197 -13.9314 11.6010 4.5885 -7.6667 -5.9138 1.0610 -18.0120 6.9837 31.5835 -60.3132 -8.9011 -79.1499 -0.0003 -53.9035 -0.0001 -39.4781 -48.1522 35.6604 -0.0000 0.0000 -0.0000 -0.0000 0.0000 -0.0000 25.5288 -17.7940 -11.8968 -6.8735 31.0833 80.7524 -0.0000 2.2254 0.0000 95.9831 -69.7302 -99.6335 -0.0000 -0.0000 0.0000 -0.0000 -0.0000 0.0000
 30.6719 37.5323 -5.5162 -150.9639 -88.4372 -158.7599 3.9717 21.3302 7.3161 8.5706 0.0000 -0.0000 2.0868 -7.1685 -13.1195 -5.5776 -0.0000 0.0000 -37.5096 -5.2931 6.2007 82.9520 -0.0000 0.0000 0.1219 -8.8467 24.6384 2.0867 -0.0000 0.0000 -3.3957 -10.0138 -2.2906 19.3624 -10.5705 6.0285 -14.0129 11.4291 4.4814 -7.1281 -5.6611 1.5192 -18.7057 6.0493 32.2544 -63.2702 -10.7604 -73.6927 -0.0003 -54.5551 -0.0002 -42.2232 -48.0089 32.8107 -0.0000 -0.0000 0.0000 -0.0000 -0.0000 0.0000 27.1489 -19.6479 -12.2510 -2.5538 27.6551 77.1946 -0.0000 3.1425 0.0000 87.8668 -69.5566 -103.2185 -0.0000 0.0000 -0.0000 -0.0000 0.0000 -0.0000
 29.1712 37.5276 -5.5293 -154.5605 -87.8154 -162.0360 5.8255 26.0898 7.3765 8.8280 0.0000 -0.0000 2.7369 -10.1164 -13.6393 -7.2905 0.0000 0.0000 -38.4819 -5.2262 7.0918 74.8470 -0.0000 0.0000 -1.0820 -9.1331 23.8675 1.5270 -0.0000 0.0000 -3.9580 -10.2529 -2.1088 20.2712 -11.1330 5.5821 -13.7372 11.5991 4.4200 -7.2580 -5.2417 1.3651 -19.1173 5.4642 32.5913 -66.1339 -12.4911 -68.5320 -0.0003 -53.5594 -0.0001 -42.9170 -48.3546 30.7947 -0.0000 0.0000 -0.0000 -0.0000 0.0000 -0.0000 27.8292 -20.8032 -13.5519 0.4368 24.8182 74.7871 -0.0000 2.2389 0.0000 81.9633 -70.1607 -105.6887 -0.0000 0.0000 -0.0000 -0.0000 0.0000 -0.0000
 27.6869 37.1723 -5.4867 -164.2651 -86.0351 -171.2179 8.4108 27.9061 6.3350 9.7214 0.0000 0.0000 0.6191 -9.3097 -13.7819 -8.3443 0.0000 0.0000 -38.7898 -4.6219 8.2285 65.2490 -0.0000 0.0000 -2.1143 -9.1009 22.9147 0.0147 0.0000 -0.0000 -4.4898 -10.0869 -1.9314 20.9120 -11.2496 5.1455 -13.2720 11.9684 4.1283 -7.7517 -4.4428 1.0046 -19.3203 5.8007 32.9859 -69.0144 -13.1490 -64.7015 -0.0003 -51.6582 -0.0001 -41.9485 -48.1565 30.9252 -0.0000 0.0000 -0.0000 -0.0000 0.0000 -0.0000 28.2794 -21.8519 -15.2698 1.1717 21.5159 72.8185 0.0000 -0.1056 0.0000 82.3099 -71.7527 -106.4791 -0.0000 0.0000 -0.0000 -0.0000 0.0000 -0.0000
 26.2003 36.4845 -5.4115 -169.1875 -83.5583 -175.3396 12.0749 26.2948 4.2303 10.5289 -0.0000 -0.0000 -3.4387 -5.9519 -14.5091 -8.5900 0.0000 -0.0000 -38.3155 -4.1353 9.2449 54.3420 -0.0000 0.0000 -3.5351 -8.6786 22.5656 -2.9114 -0.0000 -0.0000 -4.7433 -9.7854 -1.6932 21.1903 -11.2979 4.5243 -13.0649 12.3758 3.4648 -8.1608 -3.0243 1.0802 -19.8987 6.7009 33.6178 -71.1381 -12.7060 -62.1855 -0.0002 -49.7091 -0.0001 -39.2049 -49.0133 32.9989 -0.0000 0.0000 -0.0000 -0.0000 0.0000 -0.0000 27.8927 -22.4007 -17.0681 1.1771 18.5586 70.6131 0.0000 -3.1229 0.0000 85.9909 -73.3546 -105.5435 -0.0000 -0.0000 0.0000 -0.0000 -0.0000 0.0000
 24.7023 35.5417 -5.3270 -172.8002 -81.1422 -177.7314 15.9953 23.9118 1.7403 11.0610 -0.0000 0.0000 -8.7658 -3.7135 -15.8246 -7.4423 0.0000 -0.0000 -37.3264 -3.8621 9.8804 42.3686 -0.0000 0.0000 -4.8163 -8.0725 22.9789 -5.3981 0.0000 0.0000 -5.1518 -9.2776 -1.8542 21.5468 -11.1819 3.7952 -13.0133 12.9041 3.4106 -8.9372 -1.9778 0.4518 -20.8294 7.5975 34.2610 -72.8465 -11.9975 -60.9566 -0.0002 -47.9313 -0.0001 -35.5591 -49.5627 36.3654 -0.0000 0.0000 -0.0000 -0.0000 0.0000 -0.0000 27.3226 -22.4614 -17.8749 1.5035 17.2707 67.8797 0.0000 -5.6334 0.0000 86.4575 -65.3538 -100.5119 -0.0000 0.0000 -0.0000 -0.0000 0.0000 -0.0000
 23.1822 34.4406 -5.2890 -176.3982 -79.6498 -179.9937 19.5753 24.1769 -0.0760 11.2535 -0.0000 0.0000 -14.3485 -6.0173 -17.3429 -6.6402 -0.0000 -0.0000 -36.2851 -3.3905 10.1399 30.2021 -0.0000 0.0000 -6.5258 -6.8512 22.8961 -7.4391 -0.0000 -0.0000 -5.5801 -8.8065 -2.2304 21.6681 -11.0932 3.1027 -12.8347 13.3738 3.6162 -10.2374 -1.4642 -0.1978 -21.5122 8.4950 34.4466 -74.4385 -11.3058 -61.1311 -0.0002 -46.9812 -0.0001 -31.9198 -49.5848 38.7833 -0.0000 0.0000 -0.0000 -0.0000 0.0000 -0.0000 27.1359 -22.3781 -17.5403 1.9779 17.1476 65.4923 0.0000 -7.0774 0.0000 93.2250 -71.9911 -102.3780 -0.0000 -0.0000 0.0000 -0.0000 -0.0000 0.0000
 21.6758 33.3230 -5.2858 178.3619 -80.1040 175.7315 21.2770 24.6901 -0.6120 13.0753 -0.0000 0.0000 -20.0150 -8.3316 -19.1196 -7.3876 0.0000 0.0000 -36.3131 -2.1530 9.6424 20.2831 -0.0000 0.0000 -8.3198 -6.8077 21.8195 -8.8665 -0.0000 -0.0000 -5.5981 -8.7744 -2.3281 21.3901 -11.2319 2.8134 -13.3183 13.2185 3.8453 -11.1040 -1.5810 -0.5191 -21.9514 9.2662 33.9617 -75.4575 -10.7753 -62.6999 -0.0002 -47.4124 -0.0001 -30.0502 -49.5574 39.5613 -0.0000 -0.0000 0.0000 -0.0000 -0.0000 0.0000 26.7444 -22.5519 -16.6067 1.3620 15.7984 64.8446 0.0000 -7.7871 0.0000 93.4935 -73.6987 -104.2536 -0.0000 0.0000 -0.0000 -0.0000 0.0000 -0.0000
 20.0691 32.3406 -5.3214 172.2651 -81.4374 170.2560 22.3065 22.9985 -0.8753 15.7652 -0.0000 0.0000 -23.8154 -6.5938 -19.5420 -9.0823 -0.0000 0.0000 -37.4319 -0.3983 8.5291 15.8140 -0.0000 -0.0000 -9.4454 -8.5078 18.7584 -9.8319 -0.0000 -0.0000 -5.6472 -8.5230 -2.1908 21.5304 -11.0428 2.7297 -14.1339 12.3668 4.0745 -12.0316 -2.4223 -0.5686 -21.5807 9.8887 32.9282 -75.7455 -9.9652 -65.8053 -0.0002 -49.6160 -0.0001 -28.0853 -49.5647 39.5264 -0.0000 -0.0000 0.0000 -0.0000 -0.0000 0.0000 26.2456 -22.5716 -15.4628 -0.0017 13.9752 66.8559 0.0000 -8.4793 0.0000 90.8186 -78.3810 -104.5826 -0.0000 0.0000 -0.0000 -0.0000 0.0000 -0.0000
 18.2466 31.5707 -5.4677 166.5250 -82.7718 164.4502 23.0301 22.2032 -0.0017 19.4054 -0.0000 0.0000 -24.5573 -5.0619 -20.8253 -13.3181 0.0000 0.0000 -39.2646 0.2315 7.5886 18.9822 -0.0000 0.0000 -10.8889 -10.8043 13.8956 -10.4308 0.0000 -0.0000 -5.4170 -8.0802 -1.7535 21.3570 -10.4531 3.0139 -14.5036 11.2816 4.0300 -13.2275 -3.7194 -0.0658 -20.3088 10.7484 31.7513 -73.9429 -8.8209 -70.6024 -0.0003 -53.5995 -0.0001 -25.8013 -49.6131 40.0198 -0.0000 0.0000 -0.0000 -0.0000 0.0000 -0.0000 26.0035 -21.7416 -14.0793 -1.8459 11.9310 70.4781 0.0000 -8.9200 0.0000 85.5509 -80.0171 -106.9266 -0.0000 -0.0000 0.0000 -0.0000 -0.0000 0.0000
 16.2002 31.0214 -5.7656 160.0069 -84.2992 156.8023 22.9125 22.7425 2.9709 24.0666 0.0000 0.0000 -21.6745 -5.4170 -20.6618 -21.4682 -0.0000 -0.0000 -41.4915 -2.4782 7.3962 27.7456 -0.0000 0.0000 -5.7332 -17.4657 14.7948 -13.1479 -0.0000 0.0000 -4.7371 -7.2658 -1.2520 20.6904 -10.3345 4.7691 -14.4356 10.9273 3.9587 -14.3417 -5.3333 0.0784 -18.2969 12.0122 30.1630 -69.4233 -8.3031 -76.7723 -0.0003 -58.3377 -0.0002 -22.2859 -49.4680 41.8330 -0.0000 0.0000 -0.0000 -0.0000 0.0000 -0.0000 25.2558 -20.2714 -12.6681 -3.8643 11.7901 74.3995 0.0000 -9.1062 0.0000 84.4683 -80.7968 -104.7089 -0.0000 -0.0000 0.0000 -0.0000 -0.0000 0.0000
 14.0775 30.6847 -6.0985 151.4851 -84.8080 147.4675 21.1560 23.2110 6.1200 31.0189 -0.0000 0.0000 -12.9216 -6.2456 -16.4117 -36.9774 0.0000 0.0000 -45.8277 -5.9194 6.6263 41.6582 -0.0000 0.0000 -5.4918 -17.9614 14.8806 -7.0559 0.0000 0.0000 -4.1340 -7.1554 -1.6372 19.6588 -9.1122 7.1391 -14.7847 10.2946 3.9016 -14.5306 -5.8352 -0.0763 -16.5439 12.6269 28.3802 -61.1770 -8.4466 -83.1605 -0.0004 -62.3789 -0.0002 -18.4095 -49.2375 42.6291 -0.0000 0.0000 -0.0000 -0.0000 0.0000 -0.0000 23.9798 -18.4555 -11.1275 -7.3302 14.0682 78.0201 0.0000 -8.9441 0.0000 86.4573 -80.0324 -101.2581 -0.0000 0.0000 -0.0000 -0.0000 0.0000 -0.0000
 11.8921 30.4298 -6.4492 148.3113 -85.5125 143.3605 17.7299 22.1205 10.0161 41.3640 -0.0000 0.0000 -4.6161 -5.1896 -18.3906 -37.8339 -0.0000 -0.0000 -46.8578 -10.4226 6.0013 50.7609 -0.0000 0.0000 -9.0829 -13.6801 7.6908 2.4172 0.0000 0.0000 -3.5502 -7.2526 -1.4996 19.0088 -8.4971 8.8474 -14.8954 10.1211 3.9241 -14.1647 -5.8446 -0.4454 -14.9801 12.2172 26.2573 -51.0788 -11.1260 -88.0993 -0.0004 -61.6731 -0.0002 -15.8158 -49.6449 44.3953 -0.0000 0.0000 -0.0000 -0.0000 0.0000 -0.0000 22.1695 -16.1374 -9.8516 -12.7681 16.9148 82.0673 0.0000 -8.5068 0.0000 86.6876 -80.2913 -100.2029 -0.0000 -0.0000 0.0000 -0.0000 -0.0000 0.0000
 9.7657 30.1340 -6.7462 153.9368 -86.4939 149.0092 13.8031 18.3212 11.9991 53.9539 -0.0000 0.0000 -2.8800 -1.2642 -23.8022 -10.9404 0.0000 -0.0000 -45.4858 -11.7851 5.5030 57.2471 -0.0000 0.0000 -16.3339 -13.9983 6.4018 6.4486 -0.0000 0.0000 -2.8487 -6.9074 -1.3443 18.3424 -7.9594 9.1106 -14.4364 9.8602 3.7204 -14.0320 -6.1114 -0.4979 -13.5682 12.0079 24.1287 -43.5226 -16.3262 -93.0139 -0.0003 -52.4572 -0.0001 -19.8855 -48.1939 43.0311 -0.0000 0.0000 -0.0000 -0.0000 0.0000 -0.0000 20.3011 -13.4007 -8.8544 -19.5380 18.8148 86.7638 0.0000 -7.0469 0.0000 86.0411 -80.7643 -99.2941 -0.0000 0.0000 -0.0000 -0.0000 0.0000 -0.0000
 7.8777 29.9120 -7.0093 168.6738 -86.1724 162.9789 7.5507 15.4791 14.0396 67.6131 -0.0000 0.0000 -5.1549 1.8128 -25.0234 -7.3483 -0.0000 -0.0000 -43.5530 -11.9975 6.7462 61.8356 -0.0000 0.0000 -20.9031 -14.3780 6.0805 6.4592 -0.0000 0.0000 -2.0799 -5.8985 -0.1604 17.7814 -6.8902 8.8649 -13.9528 9.5453 3.3988 -14.2607 -6.3426 -0.5484 -12.4301 12.5588 22.0300 -38.3367 -21.4540 -97.4763 -0.0002 -37.3757 -0.0001 -23.2686 -39.8382 35.0391 -0.0000 0.0000 -0.0000 -0.0000 0.0000 -0.0000 18.7682 -9.2664 -7.9018 -27.9716 21.0964 90.4628 0.0000 -4.9202 0.0000 81.0548 -81.9219 -99.3769 -0.0000 0.0000 -0.0000 -0.0000 0.0000 -0.0000
 6.1933 29.8720 -7.2605 -178.2029 -84.9590 175.1840 -0.7333 13.0344 16.3666 81.5330 -0.0000 0.0000 -9.0011 2.0729 -25.3495 -5.8556 0.0000 0.0000 -40.5866 -11.6438 8.6809 64.1909 -0.0000 0.0000 -24.1650 -14.6097 5.9124 5.7042 0.0000 0.0000 -1.6162 -4.5704 0.8519 17.9562 -5.4301 8.7713 -13.9039 9.3220 3.4552 -14.1377 -6.3623 -1.4310 -11.5724 12.8344 20.5858 -32.3132 -23.6561 -101.0564 -0.0001 -22.2801 -0.0000 -13.0180 -34.4317 31.5733 -0.0000 0.0000 -0.0000 -0.0000 0.0000 -0.0000 16.7294 -4.1040 -7.6922 -37.5120 25.3771 92.4700 0.0000 -2.3036 0.0000 75.6906 -83.1268 -98.6593 -0.0000 0.0000 -0.0000 -0.0000 0.0000 -0.0000
 4.7409 30.0926 -7.4781 -174.9925 -83.3638 178.2127 -11.3301 10.9739 18.2567 94.5754 -0.0000 0.0000 -10.6353 3.0299 -23.2567 -2.1227 -0.0000 -0.0000 -37.1797 -11.0563 9.7945 64.1030 -0.0000 0.0000 -26.5871 -13.8177 6.2884 5.9371 -0.0000 0.0000 -1.4501 -3.2283 1.0592 18.2302 -3.9762 8.5647 -14.1930 9.4334 4.1120 -14.2251 -6.2297 -3.4496 -10.1420 14.8027 19.6162 -25.7600 -28.5702 -102.8910 -0.0000 -12.9919 -0.0000 -3.9307 -32.8179 35.6878 -0.0000 0.0000 -0.0000 -0.0000 0.0000 -0.0000 14.2999 0.3741 -8.5033 -48.3624 27.1346 93.2855 0.0000 -0.0689 0.0000 75.8136 -84.0908 -97.0298 -0.0000 -0.0000 0.0000 -0.0000 -0.0000 0.0000
 3.4718 30.6452 -7.5964 -175.0518 -81.7444 178.4491 -22.8263 8.7455 19.0962 104.5083 -0.0000 0.0000 -12.4757 3.4575 -22.9999 -0.0791 0.0000 0.0000 -33.2501 -10.1042 10.1298 61.5607 -0.0000 0.0000 -27.3569 -12.4363 6.4927 5.1233 -0.0000 0.0000 -0.8917 -1.6267 1.6773 17.6521 -2.6844 7.1102 -14.1332 9.4205 4.6402 -14.7461 -6.6294 -5.1950 -8.0950 17.6488 18.6607 -16.4029 -30.8852 -101.3011 -0.0000 -10.7515 -0.0000 -1.9675 -31.2557 35.8982 -0.0000 0.0000 -0.0000 -0.0000 0.0000 -0.0000 11.7503 3.5164 -10.2401 -58.6467 21.5105 93.1906 -0.0000 1.7112 0.0000 87.4536 -84.8540 -92.3227 -0.0000 0.0000 -0.0000 -0.0000 0.0000 -0.0000
